<mxfile host="app.diagrams.net" modified="2024-02-20T08:57:40.407Z" agent="Mozilla/5.0 (Macintosh; Intel Mac OS X 10_15_7) AppleWebKit/537.36 (KHTML, like Gecko) Chrome/121.0.0.0 Safari/537.36" etag="7bFSOuLeYvjTaNiWTSlc" version="22.1.21" type="github">
  <diagram name="项目状态图" id="i9eLEnEOBTxfHHYQfUX5">
    <mxGraphModel dx="1194" dy="643" grid="1" gridSize="10" guides="1" tooltips="1" connect="1" arrows="1" fold="1" page="1" pageScale="1" pageWidth="827" pageHeight="1169" math="0" shadow="0">
      <root>
        <mxCell id="0" />
        <mxCell id="1" parent="0" />
        <mxCell id="devQLzfNF_lDqvccA5dc-1" value="" style="line;strokeWidth=1;direction=south;html=1;dashed=1;dashPattern=20 20;" vertex="1" parent="1">
          <mxGeometry x="300" y="40" width="10" height="440" as="geometry" />
        </mxCell>
        <mxCell id="devQLzfNF_lDqvccA5dc-2" value="绩效" style="text;align=right;" vertex="1" parent="1">
          <mxGeometry x="190" y="40" width="60" height="20" as="geometry" />
        </mxCell>
        <mxCell id="devQLzfNF_lDqvccA5dc-3" value="OA" style="text;align=left;" vertex="1" parent="1">
          <mxGeometry x="360" y="40" width="60" height="20" as="geometry" />
        </mxCell>
        <mxCell id="devQLzfNF_lDqvccA5dc-4" style="edgeStyle=orthogonalEdgeStyle;rounded=0;orthogonalLoop=1;jettySize=auto;html=1;entryX=0.5;entryY=0;entryDx=0;entryDy=0;" edge="1" parent="1" target="devQLzfNF_lDqvccA5dc-9">
          <mxGeometry relative="1" as="geometry">
            <mxPoint x="235" y="110" as="sourcePoint" />
          </mxGeometry>
        </mxCell>
        <mxCell id="devQLzfNF_lDqvccA5dc-5" value="新建项目" style="edgeLabel;html=1;align=center;verticalAlign=middle;resizable=0;points=[];" vertex="1" connectable="0" parent="devQLzfNF_lDqvccA5dc-4">
          <mxGeometry x="-0.2727" y="-2" relative="1" as="geometry">
            <mxPoint as="offset" />
          </mxGeometry>
        </mxCell>
        <mxCell id="devQLzfNF_lDqvccA5dc-7" style="edgeStyle=orthogonalEdgeStyle;rounded=0;orthogonalLoop=1;jettySize=auto;html=1;entryX=1;entryY=0.5;entryDx=0;entryDy=0;" edge="1" parent="1" source="devQLzfNF_lDqvccA5dc-9" target="devQLzfNF_lDqvccA5dc-13">
          <mxGeometry relative="1" as="geometry">
            <Array as="points">
              <mxPoint x="380" y="175" />
              <mxPoint x="380" y="255" />
            </Array>
          </mxGeometry>
        </mxCell>
        <mxCell id="devQLzfNF_lDqvccA5dc-8" value="交付类项目申报" style="edgeLabel;html=1;align=center;verticalAlign=middle;resizable=0;points=[];" vertex="1" connectable="0" parent="devQLzfNF_lDqvccA5dc-7">
          <mxGeometry x="-0.1103" y="-3" relative="1" as="geometry">
            <mxPoint x="13" as="offset" />
          </mxGeometry>
        </mxCell>
        <mxCell id="devQLzfNF_lDqvccA5dc-9" value="售前" style="html=1;align=center;verticalAlign=top;rounded=1;absoluteArcSize=1;arcSize=10;dashed=0;" vertex="1" parent="1">
          <mxGeometry x="195" y="160" width="80" height="30" as="geometry" />
        </mxCell>
        <mxCell id="devQLzfNF_lDqvccA5dc-10" style="edgeStyle=orthogonalEdgeStyle;rounded=0;orthogonalLoop=1;jettySize=auto;html=1;" edge="1" parent="1" source="devQLzfNF_lDqvccA5dc-13">
          <mxGeometry relative="1" as="geometry">
            <mxPoint x="280" y="310" as="targetPoint" />
            <Array as="points">
              <mxPoint x="235" y="280" />
              <mxPoint x="370" y="280" />
              <mxPoint x="370" y="310" />
            </Array>
          </mxGeometry>
        </mxCell>
        <mxCell id="devQLzfNF_lDqvccA5dc-11" value="交付类项目延期申请" style="edgeLabel;html=1;align=center;verticalAlign=middle;resizable=0;points=[];" vertex="1" connectable="0" parent="devQLzfNF_lDqvccA5dc-10">
          <mxGeometry x="0.1849" y="2" relative="1" as="geometry">
            <mxPoint as="offset" />
          </mxGeometry>
        </mxCell>
        <mxCell id="devQLzfNF_lDqvccA5dc-12" style="edgeStyle=orthogonalEdgeStyle;rounded=0;orthogonalLoop=1;jettySize=auto;html=1;entryX=0;entryY=0.5;entryDx=0;entryDy=0;" edge="1" parent="1" source="devQLzfNF_lDqvccA5dc-13" target="devQLzfNF_lDqvccA5dc-16">
          <mxGeometry relative="1" as="geometry">
            <Array as="points">
              <mxPoint x="150" y="255" />
              <mxPoint x="150" y="385" />
            </Array>
          </mxGeometry>
        </mxCell>
        <mxCell id="devQLzfNF_lDqvccA5dc-13" value="交付" style="html=1;align=center;verticalAlign=top;rounded=1;absoluteArcSize=1;arcSize=10;dashed=0;" vertex="1" parent="1">
          <mxGeometry x="195" y="240" width="80" height="30" as="geometry" />
        </mxCell>
        <mxCell id="devQLzfNF_lDqvccA5dc-14" style="edgeStyle=orthogonalEdgeStyle;rounded=0;orthogonalLoop=1;jettySize=auto;html=1;entryX=0;entryY=0.25;entryDx=0;entryDy=0;" edge="1" parent="1" source="devQLzfNF_lDqvccA5dc-15" target="devQLzfNF_lDqvccA5dc-16">
          <mxGeometry relative="1" as="geometry">
            <Array as="points">
              <mxPoint x="175" y="320" />
              <mxPoint x="175" y="378" />
            </Array>
          </mxGeometry>
        </mxCell>
        <mxCell id="devQLzfNF_lDqvccA5dc-15" value="延期" style="html=1;align=center;verticalAlign=top;rounded=1;absoluteArcSize=1;arcSize=10;dashed=0;" vertex="1" parent="1">
          <mxGeometry x="195" y="300" width="80" height="30" as="geometry" />
        </mxCell>
        <mxCell id="devQLzfNF_lDqvccA5dc-16" value="结项" style="html=1;align=center;verticalAlign=top;rounded=1;absoluteArcSize=1;arcSize=10;dashed=0;" vertex="1" parent="1">
          <mxGeometry x="195" y="370" width="80" height="30" as="geometry" />
        </mxCell>
        <mxCell id="devQLzfNF_lDqvccA5dc-17" style="edgeStyle=orthogonalEdgeStyle;rounded=0;orthogonalLoop=1;jettySize=auto;html=1;entryX=0.588;entryY=1.033;entryDx=0;entryDy=0;entryPerimeter=0;" edge="1" parent="1" source="devQLzfNF_lDqvccA5dc-15" target="devQLzfNF_lDqvccA5dc-15">
          <mxGeometry relative="1" as="geometry">
            <Array as="points">
              <mxPoint x="370" y="320" />
              <mxPoint x="370" y="350" />
              <mxPoint x="242" y="350" />
            </Array>
          </mxGeometry>
        </mxCell>
        <mxCell id="devQLzfNF_lDqvccA5dc-18" value="交付类项目延期申请" style="edgeLabel;html=1;align=center;verticalAlign=middle;resizable=0;points=[];" vertex="1" connectable="0" parent="devQLzfNF_lDqvccA5dc-17">
          <mxGeometry x="-0.1765" y="-3" relative="1" as="geometry">
            <mxPoint as="offset" />
          </mxGeometry>
        </mxCell>
        <mxCell id="devQLzfNF_lDqvccA5dc-19" value="" style="strokeWidth=2;html=1;shape=mxgraph.flowchart.start_2;whiteSpace=wrap;" vertex="1" parent="1">
          <mxGeometry x="220" y="80" width="30" height="30" as="geometry" />
        </mxCell>
      </root>
    </mxGraphModel>
  </diagram>
</mxfile>
